<?xml version="1.0" encoding="UTF-8"?>
<!-- Created with Inkscape (http://www.inkscape.org/) -->
<svg width="512" height="512" version="1.1" viewBox="0 0 512 512" xmlns="http://www.w3.org/2000/svg">
 <g>
  <rect width="512" height="512" rx="64" ry="64" fill="#fff"/>
  <g style="font-variant-ligatures:none" aria-label="255 19">
   <g fill="#6c7596">
    <path d="m41.484 292.56v-16.875l59.625-66.25q10.625-11.875 16.625-20.25 6-8.5 8.375-15.375t2.375-14.25q0-13.625-8.25-22.875-8.25-9.375-23.625-9.375-16 0-25 9.625-8.875 9.625-8.875 27.25h-23.625l-0.25-0.75q-0.375-15.75 6.625-28.25 7-12.625 20.25-19.875 13.375-7.375 31.75-7.375 17.25 0 29.625 6.625 12.5 6.5 19.25 17.875t6.75 26.125q0 10-4 19.875-3.875 9.875-11.5 20.25-7.5 10.375-18.125 21.875l-47.875 52.125 0.25 0.625h64.625l2-20.875h20.875v40.125z"/>
    <path d="m255.98 295.19q-15.375 0-27.625-5.625-12.125-5.625-19-16.625-6.875-11.125-6.5-27.5l0.25-0.75h22.25q0 14.75 8.5 23 8.625 8.25 22.125 8.25 15.625 0 24.25-11t8.625-30.125q0-17.625-8.75-28.75-8.625-11.25-24-11.25-14.5 0-21.125 4.375-6.5 4.375-9.5 13.375l-20.5-2.125 10.5-99.875h96.125v36h-18.5l-2.375-14.125h-54.375l-5.875 51.125q3.75-2.875 8.125-5 4.375-2.25 9.5-3.625 5.25-1.375 11.375-1.5 16.75-0.125 28.875 7.375 12.125 7.375 18.625 21.25 6.5 13.75 6.5 32.5 0 18.25-6.625 31.875-6.5 13.625-19.375 21.25-12.75 7.5-31.5 7.5z"/>
    <path d="m411.11 295.19q-15.375 0-27.625-5.625-12.125-5.625-19-16.625-6.875-11.125-6.5-27.5l0.25-0.75h22.25q0 14.75 8.5 23 8.625 8.25 22.125 8.25 15.625 0 24.25-11t8.625-30.125q0-17.625-8.75-28.75-8.625-11.25-24-11.25-14.5 0-21.125 4.375-6.5 4.375-9.5 13.375l-20.5-2.125 10.5-99.875h96.125v36h-18.5l-2.375-14.125h-54.375l-5.875 51.125q3.75-2.875 8.125-5 4.375-2.25 9.5-3.625 5.25-1.375 11.375-1.5 16.75-0.125 28.875 7.375 12.125 7.375 18.625 21.25 6.5 13.75 6.5 32.5 0 18.25-6.625 31.875-6.5 13.625-19.375 21.25-12.75 7.5-31.5 7.5z"/>
   </g>
   <path d="m145.42 400.08v-15.75l28.125-3.5v-136.38l-28.625 0.5v-15.375l53.25-11.5v162.75l28 3.5v15.75z" fill="#f60"/>
   <path d="m319.67 402.71q-9.5 0-19.5-1.875-9.875-1.75-17.75-5.5l3.75-18.625q7.625 3.625 15.5 5.25 8 1.5 18 1.5 17.75 0 28-13.5 10.375-13.625 10.75-43.75l-0.5-0.625q-5 8.375-14 12.875t-20.25 4.5q-17.75 0-30.625-7.375t-19.875-21.375q-6.875-14-6.875-33.875 0-19 7.5-33.625 7.625-14.625 20.375-22.875 12.875-8.375 28.5-8.375 19 0 32.75 8 13.75 7.875 21.125 23.625 7.5 15.625 7.5 38.875v32.875q0 28.375-8 47t-22.5 27.75q-14.375 9.125-33.875 9.125zm4-79.125q13.625 0 22.625-5.875 9.125-5.875 13.125-15v-19.25q0-24.125-9.25-36.375-9.125-12.25-26.75-12.25-9.125 0-16.5 5.875-7.375 5.75-11.75 16-4.25 10.25-4.25 23.625 0 13.125 3.875 22.875 4 9.625 11.375 15t17.5 5.375z" fill="#f60"/>
  </g>
 </g>
</svg>
